<svg width="30" height="30" viewBox="0 0 30 30" fill="none" xmlns="http://www.w3.org/2000/svg">
<path d="M15 0C23.284 0 30 6.71602 30 15C30 23.284 23.284 30 15 30C6.71602 30 0 23.284 0 15C0 6.71602 6.71602 0 15 0ZM12.7564 22.1174V15.2889H11.792C11.499 15.2889 11.2617 15.051 11.2617 14.7586V12.5965C11.2617 12.3053 11.5002 12.0668 11.792 12.0668H12.7564V10.3283C12.7564 8.68477 14.0895 7.35234 15.733 7.35234H18.208C18.501 7.35234 18.7383 7.58965 18.7383 7.88262V10.0441C18.7383 10.3371 18.501 10.5744 18.208 10.5744H16.7432C16.5762 10.5744 16.4385 10.7121 16.4385 10.8791V12.068L18.1758 12.0668C18.4688 12.0873 18.7061 12.2848 18.7061 12.5965C18.6545 13.3289 18.583 14.0689 18.5209 14.8025C18.498 15.0762 18.2678 15.2889 17.993 15.2889H16.4385V22.1174C16.4385 22.4086 16.2006 22.6471 15.9088 22.6471L13.2867 22.6477C12.9943 22.6477 12.7564 22.4098 12.7564 22.1174ZM13.449 21.9563H15.7459V14.5963H17.8441L17.9994 12.7576H15.7459V10.8791C15.7459 10.3283 16.1924 9.88184 16.7432 9.88184H18.0457V8.04492H15.733C14.4715 8.04492 13.449 9.06738 13.449 10.3283V12.7588H11.9543V14.5963H13.449V21.9563ZM15 0.691992C7.09805 0.691992 0.691992 7.09805 0.691992 15C0.691992 22.902 7.09805 29.308 15 29.308C22.902 29.308 29.308 22.902 29.308 15C29.308 7.09805 22.902 0.691992 15 0.691992Z" fill="#E3E3E3"/>
</svg>
