<svg width="41" height="41" viewBox="0 0 41 41" fill="none" xmlns="http://www.w3.org/2000/svg">
<path d="M30.4135 20.7322C30.2946 20.6106 30.1527 20.514 29.996 20.4478C29.8394 20.3817 29.6711 20.3474 29.5011 20.3469C29.3311 20.3464 29.1627 20.3798 29.0057 20.4451C28.8487 20.5104 28.7062 20.6063 28.5867 20.7272C28.4671 20.8481 28.3728 20.9916 28.3092 21.1493C28.2457 21.307 28.2141 21.4758 28.2165 21.6458C28.2188 21.8158 28.255 21.9836 28.3229 22.1395C28.3907 22.2955 28.4889 22.4363 28.6118 22.5538C29.6988 23.6235 30.5612 24.8995 31.1484 26.3069C31.7356 27.7144 32.0358 29.225 32.0313 30.75C32.0313 32.3171 27.5394 34.5938 20.5001 34.5938C13.4607 34.5938 8.96881 32.3159 8.96881 30.7474C8.9645 29.2329 9.26064 27.7325 9.84011 26.3332C10.4196 24.9338 11.2708 23.6633 12.3446 22.5952C12.4661 22.4768 12.5628 22.3355 12.6292 22.1794C12.6956 22.0233 12.7304 21.8556 12.7314 21.686C12.7325 21.5163 12.6999 21.3482 12.6355 21.1913C12.5711 21.0344 12.4761 20.8918 12.3562 20.7719C12.2363 20.6519 12.0937 20.557 11.9368 20.4926C11.7799 20.4282 11.6117 20.3955 11.4421 20.3966C11.2725 20.3977 11.1048 20.4324 10.9487 20.4988C10.7926 20.5652 10.6512 20.662 10.5328 20.7834C9.22009 22.0893 8.17943 23.6425 7.47111 25.3533C6.76279 27.0641 6.40087 28.8984 6.40631 30.75C6.40631 34.911 13.6672 37.1562 20.5001 37.1562C27.333 37.1562 34.5938 34.911 34.5938 30.75C34.5995 28.8859 34.2326 27.0395 33.5148 25.3191C32.7969 23.5988 31.7425 22.0393 30.4135 20.7322Z" fill="url(#paint0_linear_2001_142)"/>
<path d="M20.5 21.7812C22.2739 21.7812 24.0079 21.2552 25.4828 20.2697C26.9577 19.2842 28.1072 17.8835 28.786 16.2447C29.4649 14.6059 29.6425 12.8026 29.2964 11.0628C28.9504 9.32302 28.0962 7.72494 26.8419 6.47064C25.5876 5.21633 23.9895 4.36214 22.2497 4.01608C20.5099 3.67002 18.7066 3.84763 17.0678 4.52646C15.429 5.20528 14.0283 6.35483 13.0428 7.82973C12.0573 9.30463 11.5312 11.0386 11.5312 12.8125C11.534 15.1903 12.4798 17.47 14.1612 19.1513C15.8425 20.8327 18.1222 21.7785 20.5 21.7812ZM20.5 6.40625C21.767 6.40625 23.0056 6.78197 24.0591 7.4859C25.1126 8.18983 25.9337 9.19035 26.4186 10.3609C26.9035 11.5315 27.0303 12.8196 26.7832 14.0623C26.536 15.305 25.9258 16.4465 25.0299 17.3424C24.134 18.2383 22.9925 18.8485 21.7498 19.0957C20.5071 19.3428 19.219 19.216 18.0484 18.7311C16.8778 18.2462 15.8773 17.4251 15.1734 16.3716C14.4695 15.3181 14.0937 14.0795 14.0937 12.8125C14.0958 11.1141 14.7713 9.48578 15.9723 8.28481C17.1733 7.08384 18.8016 6.40825 20.5 6.40625Z" fill="url(#paint1_linear_2001_142)"/>
<defs>
<linearGradient id="paint0_linear_2001_142" x1="20.5001" y1="20.3469" x2="20.5001" y2="37.1562" gradientUnits="userSpaceOnUse">
<stop stop-color="#D97904"/>
<stop offset="0.484375" stop-color="#7A4300"/>
<stop offset="1"/>
</linearGradient>
<linearGradient id="paint1_linear_2001_142" x1="20.5" y1="3.84375" x2="20.5" y2="21.7812" gradientUnits="userSpaceOnUse">
<stop stop-color="#D97904"/>
<stop offset="0.484375" stop-color="#7A4300"/>
<stop offset="1"/>
</linearGradient>
</defs>
</svg>

