<svg width="31" height="31" viewBox="0 0 31 31" fill="none" xmlns="http://www.w3.org/2000/svg">
<g clip-path="url(#clip0_2001_108)">
<path d="M30.6215 28.7951L22.9115 21.0852C25.0126 18.5155 26.0456 15.2366 25.7969 11.9267C25.5482 8.61675 24.0369 5.52902 21.5754 3.30217C19.114 1.07533 15.8908 -0.120264 12.5726 -0.0372974C9.25436 0.0456687 6.09495 1.40084 3.74788 3.74792C1.40081 6.09499 0.0456305 9.25439 -0.0373356 12.5726C-0.120302 15.8908 1.07529 19.114 3.30214 21.5755C5.52898 24.0369 8.61671 25.5483 11.9266 25.797C15.2366 26.0457 18.5155 25.0126 21.0851 22.9116L28.7951 30.6215C29.0387 30.8568 29.365 30.987 29.7036 30.9841C30.0423 30.9811 30.3663 30.8453 30.6058 30.6058C30.8453 30.3663 30.9811 30.0424 30.984 29.7037C30.987 29.365 30.8568 29.0387 30.6215 28.7951ZM12.9166 23.25C10.8729 23.25 8.87504 22.644 7.17574 21.5085C5.47643 20.3731 4.15198 18.7592 3.36987 16.8711C2.58777 14.9829 2.38313 12.9052 2.78185 10.9007C3.18056 8.89626 4.16472 7.05504 5.60986 5.6099C7.055 4.16475 8.89623 3.1806 10.9007 2.78189C12.9052 2.38317 14.9829 2.58781 16.871 3.36991C18.7592 4.15202 20.373 5.47647 21.5085 7.17577C22.6439 8.87508 23.25 10.8729 23.25 12.9167C23.2469 15.6563 22.1572 18.2828 20.22 20.22C18.2828 22.1572 15.6563 23.2469 12.9166 23.25Z" fill="url(#paint0_linear_2001_108)"/>
</g>
<defs>
<linearGradient id="paint0_linear_2001_108" x1="15.4714" y1="-0.0413437" x2="15.4714" y2="30.9841" gradientUnits="userSpaceOnUse">
<stop stop-color="#D97904"/>
<stop offset="0.484375" stop-color="#7A4300"/>
<stop offset="1"/>
</linearGradient>
<clipPath id="clip0_2001_108">
<rect width="31" height="31" fill="white"/>
</clipPath>
</defs>
</svg>
