<svg width="30" height="30" viewBox="0 0 30 30" fill="none" xmlns="http://www.w3.org/2000/svg">
<path d="M14.9803 0C23.2534 0 29.9607 6.70722 29.9607 14.9803C29.9607 23.2534 23.2534 29.9607 14.9803 29.9607C6.70722 29.9607 0 23.2534 0 14.9803C0 6.70722 6.70722 0 14.9803 0ZM8.80696 21.4265H10.9184V13.0621H8.80696V21.4265ZM15.3995 17.0186C15.3995 15.6992 16.0211 14.6414 17.4529 14.6414C18.8666 14.6414 19.3244 15.7811 19.3244 17.0186V21.4276H21.423V16.0387C21.423 14.1245 20.4957 12.7858 18.4738 12.7858C17.556 12.7858 16.4959 13.2669 16.0475 14.1023L15.3995 15.2841V13.0621H13.4016V21.4265H15.3995V17.0186ZM16.0908 17.0186V22.1178H12.7102V12.3707H16.0908V12.993C16.7581 12.3953 17.5776 12.0944 18.4738 12.0944C20.8774 12.0944 22.1143 13.7417 22.1143 16.0387V22.116L18.6331 22.1166V17.0186C18.6331 16.1874 18.4498 15.3327 17.4529 15.3327C16.4133 15.3327 16.0908 16.089 16.0908 17.0186ZM9.84952 11.1853C10.5812 11.1853 11.1613 10.5871 11.1613 9.85947C11.1613 9.13126 10.5812 8.53418 9.84952 8.53418C9.1178 8.53418 8.53769 9.13126 8.53769 9.85947C8.53769 10.5871 9.11721 11.1853 9.84952 11.1853ZM9.84952 11.8767C8.73906 11.8767 7.84636 10.9658 7.84636 9.85947C7.84636 8.75311 8.73906 7.84285 9.84952 7.84285C10.9594 7.84285 11.8527 8.75311 11.8527 9.85947C11.8527 10.9652 10.9594 11.8767 9.84952 11.8767ZM8.11564 22.1178V12.3707H11.6097V22.1178H8.11564ZM14.9803 0.691913C7.08889 0.691913 0.691328 7.08889 0.691328 14.9803C0.691328 22.8718 7.08889 29.2687 14.9803 29.2687C22.8718 29.2687 29.2693 22.8718 29.2693 14.9803C29.2693 7.08889 22.8718 0.691913 14.9803 0.691913Z" fill="#E3E3E3"/>
</svg>
