<svg width="194" height="70" viewBox="0 0 194 70" fill="none" xmlns="http://www.w3.org/2000/svg">
<rect width="194" height="70" fill="white"/>
<path d="M55.5108 34.9112L52.435 33.3741L50.2308 26.7602C49.5922 24.8461 47.8086 23.5601 45.7915 23.5601H41.0632L41.4667 19.3242C41.593 18.0148 41.1573 16.706 40.2722 15.7326C39.3867 14.7586 38.1241 14.2001 36.809 14.2001H13.72C12.8578 14.2001 12.16 14.8985 12.16 15.7601C12.16 16.6218 12.8578 17.3201 13.72 17.3201H36.809C37.2536 17.3201 37.6639 17.5016 37.9624 17.8302C38.2624 18.1599 38.4028 18.5842 38.3618 19.0278L35.7014 46.9601H29.2685C29.1094 45.9248 28.7043 44.9628 28.0158 44.1708C26.9571 42.9514 25.4366 42.2801 23.7383 42.2801C20.819 42.2801 18.1774 44.2525 17.1993 46.9601H10.6C9.73784 46.9601 9.04 47.6585 9.04 48.5201C9.04 49.3818 9.73784 50.0801 10.6 50.0801H16.8915C17.0506 51.1154 17.4557 52.0774 18.1442 52.8694C19.2029 54.0888 20.7234 54.7601 22.4217 54.7601C25.341 54.7601 27.9826 52.7878 28.9607 50.0801H40.2915C40.4506 51.1154 40.8557 52.0774 41.5442 52.8694C42.6029 54.0888 44.1234 54.7601 45.8217 54.7601C48.741 54.7601 51.3826 52.7878 52.3607 50.0801H55.84C56.5836 50.0801 57.2232 49.5554 57.3693 48.8264L58.9293 41.0264C58.9491 40.925 58.96 40.8231 58.96 40.7201V40.4924C58.96 38.1134 57.6376 35.9751 55.5108 34.9112ZM26.2151 48.3033C25.9608 50.1124 24.224 51.6401 22.4217 51.6401C21.6386 51.6401 20.9563 51.35 20.4977 50.8227C20.0286 50.2824 19.8321 49.5414 19.9449 48.737C20.1992 46.9279 21.936 45.4001 23.7383 45.4001C24.5214 45.4001 25.2037 45.6903 25.6623 46.2176C26.1314 46.7573 26.3279 47.4988 26.2151 48.3033ZM45.7915 26.6801C46.4634 26.6801 47.0593 27.1091 47.2725 27.7472L48.9963 32.9201H40.1719L40.7662 26.6801H45.7915ZM49.6151 48.3033C49.3608 50.1124 47.624 51.6401 45.8217 51.6401C45.0386 51.6401 44.3563 51.35 43.8977 50.8227C43.4286 50.2824 43.2321 49.5414 43.3449 48.737C43.5992 46.9279 45.336 45.4001 47.1383 45.4001C47.9214 45.4001 48.6037 45.6903 49.0623 46.2176C49.5314 46.7573 49.7279 47.4988 49.6151 48.3033ZM54.5618 46.9601H52.6685C52.5094 45.9248 52.1043 44.9628 51.4158 44.1708C50.3571 42.9514 48.8366 42.2801 47.1383 42.2801C44.219 42.2801 41.5774 44.2525 40.5993 46.9601H38.835L39.875 36.0401H50.7913L54.1157 37.702C55.1791 38.234 55.84 39.3031 55.84 40.4924L54.5618 46.9601ZM23.08 25.1201H10.6C9.73784 25.1201 9.04 24.4218 9.04 23.5601C9.04 22.6985 9.73784 22.0001 10.6 22.0001H23.08C23.9422 22.0001 24.64 22.6985 24.64 23.5601C24.64 24.4218 23.9422 25.1201 23.08 25.1201ZM19.96 40.7201H10.6C9.73784 40.7201 9.04 40.0218 9.04 39.1601C9.04 38.2985 9.73784 37.6001 10.6 37.6001H19.96C20.8222 37.6001 21.52 38.2985 21.52 39.1601C21.52 40.0218 20.8222 40.7201 19.96 40.7201ZM16.84 32.9201H13.72C12.8578 32.9201 12.16 32.2218 12.16 31.3601C12.16 30.4985 12.8578 29.8001 13.72 29.8001H16.84C17.7022 29.8001 18.4 30.4985 18.4 31.3601C18.4 32.2218 17.7022 32.9201 16.84 32.9201ZM29.32 32.9201H23.08C22.2178 32.9201 21.52 32.2218 21.52 31.3601C21.52 30.4985 22.2178 29.8001 23.08 29.8001H29.32C30.1822 29.8001 30.88 30.4985 30.88 31.3601C30.88 32.2218 30.1822 32.9201 29.32 32.9201Z" fill="url(#paint0_linear_2001_146)"/>
<path d="M69.4932 11.4468H78.7471C80.0947 11.4468 81.2627 11.5928 82.251 11.8848C83.2393 12.1768 84.0591 12.5998 84.7104 13.1538C85.3618 13.7004 85.8447 14.3704 86.1592 15.1641C86.4811 15.9577 86.6421 16.8524 86.6421 17.8481C86.6421 18.784 86.4849 19.6488 86.1704 20.4424C85.856 21.236 85.373 21.9248 84.7217 22.5088C84.0778 23.0853 83.2617 23.5382 82.2734 23.8677C81.2852 24.1896 80.1172 24.3506 78.7695 24.3506L73.0532 24.3394V29H69.4932V11.4468ZM78.8369 21.2622C79.5107 21.2622 80.0985 21.1836 80.6001 21.0264C81.1092 20.8617 81.5322 20.6333 81.8691 20.3413C82.2135 20.0418 82.4681 19.6825 82.6328 19.2632C82.805 18.8364 82.8911 18.3647 82.8911 17.8481C82.8911 16.8075 82.5505 15.9989 81.8691 15.4224C81.1953 14.8384 80.1846 14.5464 78.8369 14.5464H73.0532V21.2622H78.8369ZM89.3262 22.374C89.3262 21.4232 89.5171 20.5322 89.8989 19.7012C90.2882 18.8701 90.8385 18.1439 91.5498 17.5225C92.2686 16.901 93.1333 16.4106 94.144 16.0513C95.1623 15.6919 96.304 15.5122 97.5693 15.5122C98.8346 15.5122 99.9727 15.6919 100.983 16.0513C102.002 16.4106 102.866 16.901 103.578 17.5225C104.296 18.1439 104.847 18.8701 105.229 19.7012C105.618 20.5322 105.812 21.4232 105.812 22.374C105.812 23.3249 105.618 24.2158 105.229 25.0469C104.847 25.8779 104.296 26.6042 103.578 27.2256C102.866 27.847 102.002 28.3374 100.983 28.6968C99.9727 29.0562 98.8346 29.2358 97.5693 29.2358C96.304 29.2358 95.1623 29.0562 94.144 28.6968C93.1333 28.3374 92.2686 27.847 91.5498 27.2256C90.8385 26.6042 90.2882 25.8779 89.8989 25.0469C89.5171 24.2158 89.3262 23.3249 89.3262 22.374ZM92.8188 22.374C92.8188 22.9056 92.9237 23.411 93.1333 23.8901C93.3504 24.3618 93.6611 24.7811 94.0654 25.1479C94.4772 25.5073 94.9751 25.7956 95.5591 26.0127C96.1506 26.2223 96.8206 26.3271 97.5693 26.3271C98.318 26.3271 98.9844 26.2223 99.5684 26.0127C100.16 25.7956 100.658 25.5073 101.062 25.1479C101.474 24.7811 101.785 24.3618 101.994 23.8901C102.211 23.411 102.32 22.9056 102.32 22.374C102.32 21.8424 102.211 21.3371 101.994 20.8579C101.785 20.3787 101.474 19.9595 101.062 19.6001C100.658 19.2332 100.16 18.945 99.5684 18.7354C98.9844 18.5182 98.318 18.4097 97.5693 18.4097C96.8206 18.4097 96.1506 18.5182 95.5591 18.7354C94.9751 18.945 94.4772 19.2332 94.0654 19.6001C93.6611 19.9595 93.3504 20.3787 93.1333 20.8579C92.9237 21.3371 92.8188 21.8424 92.8188 22.374ZM109.26 10.3687H112.584V29H109.26V10.3687ZM116.223 24.8223C116.223 24.1859 116.362 23.6056 116.639 23.0815C116.916 22.5575 117.331 22.1082 117.885 21.7339C118.439 21.3521 119.128 21.0601 119.952 20.8579C120.783 20.6483 121.749 20.5435 122.849 20.5435C123.665 20.5435 124.522 20.6034 125.421 20.7231C126.327 20.8429 127.259 21.0264 128.217 21.2734C128.18 20.8542 128.053 20.4686 127.835 20.1167C127.618 19.7573 127.315 19.4504 126.926 19.1958C126.544 18.9338 126.08 18.7316 125.533 18.5894C124.994 18.4471 124.38 18.376 123.691 18.376C123.317 18.376 122.905 18.3984 122.456 18.4434C122.007 18.4883 121.543 18.5557 121.063 18.6455C120.584 18.7354 120.109 18.8477 119.637 18.9824C119.173 19.1172 118.739 19.2782 118.334 19.4653L117.324 16.7363C117.825 16.5566 118.361 16.3919 118.93 16.2422C119.506 16.0924 120.094 15.9652 120.693 15.8604C121.292 15.748 121.891 15.6619 122.49 15.6021C123.089 15.5422 123.669 15.5122 124.23 15.5122C126.709 15.5122 128.55 16.1449 129.756 17.4102C130.961 18.6755 131.564 20.6146 131.564 23.2275V29H128.24V27.7534C127.895 27.9556 127.517 28.1465 127.105 28.3262C126.701 28.5059 126.259 28.6631 125.78 28.7979C125.301 28.9326 124.785 29.0374 124.23 29.1123C123.684 29.1947 123.104 29.2358 122.49 29.2358C121.457 29.2358 120.547 29.1235 119.761 28.8989C118.982 28.6743 118.331 28.3636 117.807 27.9668C117.283 27.57 116.886 27.1058 116.616 26.5742C116.354 26.0352 116.223 25.4512 116.223 24.8223ZM119.727 24.71C119.727 24.9271 119.783 25.1367 119.896 25.3389C120.008 25.5335 120.188 25.7095 120.435 25.8667C120.682 26.0164 120.996 26.14 121.378 26.2373C121.767 26.3271 122.235 26.3721 122.782 26.3721C123.366 26.3721 123.931 26.3197 124.478 26.2148C125.024 26.11 125.533 25.9715 126.005 25.7993C126.477 25.6271 126.903 25.4287 127.285 25.2041C127.667 24.9795 127.985 24.7474 128.24 24.5078V23.9238C127.731 23.7816 127.225 23.6618 126.724 23.5645C126.229 23.4671 125.754 23.3923 125.297 23.3398C124.848 23.2799 124.421 23.2388 124.017 23.2163C123.62 23.1938 123.272 23.1826 122.973 23.1826C122.351 23.1826 121.835 23.2238 121.423 23.3062C121.011 23.3885 120.678 23.5008 120.423 23.6431C120.169 23.7778 119.989 23.9388 119.884 24.126C119.779 24.3132 119.727 24.5078 119.727 24.71ZM135.966 15.748H139.291V17.6572C140.024 17.1107 140.799 16.639 141.615 16.2422C142.431 15.8454 143.244 15.5422 144.052 15.3325L145.029 18.376C143.749 18.5033 142.622 18.7915 141.649 19.2407C140.683 19.6825 139.897 20.3076 139.291 21.1162V29H135.966V15.748ZM69.4932 40.4468H84.4409V43.5688H73.0532V47.0728H83.1382V50.0039H73.0532V54.8892H84.6768V58H69.4932V40.4468ZM91.6509 51.374L86.1704 44.7368H90.4155L93.7397 48.7798L96.8955 44.7368H101.04L95.8848 51.3628L101.365 58H97.1201L93.6948 53.856L90.5166 58H86.3726L91.6509 51.374ZM106.722 63.4131H103.398V44.748H106.722V45.9946C107.014 45.7925 107.359 45.6016 107.755 45.4219C108.152 45.2422 108.579 45.085 109.036 44.9502C109.492 44.8154 109.964 44.7106 110.451 44.6357C110.937 44.5534 111.424 44.5122 111.911 44.5122C113.034 44.5122 114.063 44.6769 114.999 45.0063C115.942 45.3358 116.751 45.8 117.425 46.3989C118.099 46.9979 118.623 47.7166 118.997 48.5552C119.379 49.3862 119.57 50.3071 119.57 51.3179C119.57 52.3735 119.371 53.3281 118.975 54.1816C118.578 55.0277 118.028 55.7539 117.324 56.3604C116.627 56.9593 115.796 57.4235 114.831 57.7529C113.872 58.0749 112.832 58.2358 111.708 58.2358C111.229 58.2358 110.754 58.2059 110.282 58.146C109.818 58.0861 109.369 58.0037 108.935 57.8989C108.508 57.7941 108.104 57.6706 107.722 57.5283C107.347 57.3786 107.014 57.2176 106.722 57.0454V63.4131ZM106.722 53.8335C107.059 54.103 107.415 54.3314 107.789 54.5186C108.163 54.7057 108.545 54.8592 108.935 54.979C109.324 55.0988 109.717 55.1886 110.114 55.2485C110.511 55.3009 110.896 55.3271 111.271 55.3271C112.034 55.3271 112.712 55.2261 113.303 55.0239C113.902 54.8143 114.404 54.5298 114.808 54.1704C115.22 53.811 115.534 53.388 115.751 52.9014C115.969 52.4147 116.077 51.8869 116.077 51.3179C116.077 50.7863 115.969 50.2847 115.751 49.813C115.542 49.3413 115.235 48.9295 114.831 48.5776C114.434 48.2183 113.951 47.9375 113.382 47.7354C112.82 47.5257 112.188 47.4209 111.484 47.4209C111.035 47.4209 110.585 47.4658 110.136 47.5557C109.687 47.638 109.253 47.7578 108.833 47.915C108.422 48.0723 108.032 48.2632 107.666 48.4878C107.306 48.7124 106.992 48.9632 106.722 49.2402V53.8335ZM122.714 44.748H126.039V46.6572C126.772 46.1107 127.547 45.639 128.363 45.2422C129.179 44.8454 129.992 44.5422 130.8 44.3325L131.777 47.376C130.497 47.5033 129.37 47.7915 128.397 48.2407C127.431 48.6825 126.645 49.3076 126.039 50.1162V58H122.714V44.748ZM133.63 51.3291C133.63 50.4307 133.814 49.5734 134.181 48.7573C134.548 47.9338 135.075 47.2075 135.764 46.5786C136.453 45.9497 137.295 45.4481 138.291 45.0737C139.294 44.6994 140.432 44.5122 141.705 44.5122C142.97 44.5122 144.108 44.7031 145.119 45.085C146.137 45.4593 146.998 45.9759 147.702 46.6348C148.413 47.2936 148.956 48.0685 149.331 48.9595C149.712 49.8504 149.903 50.805 149.903 51.8232C149.903 51.9505 149.9 52.089 149.892 52.2388C149.892 52.381 149.885 52.512 149.87 52.6318H137.336C137.479 53.0286 137.707 53.3918 138.021 53.7212C138.343 54.0506 138.744 54.3351 139.223 54.5747C139.702 54.8143 140.256 55.0015 140.885 55.1362C141.514 55.2635 142.21 55.3271 142.974 55.3271C143.738 55.3271 144.498 55.2485 145.254 55.0913C146.01 54.9266 146.733 54.7207 147.421 54.4736L148.544 57.0117C148.11 57.2139 147.668 57.3936 147.219 57.5508C146.778 57.7005 146.313 57.8278 145.827 57.9326C145.347 58.0299 144.842 58.1048 144.311 58.1572C143.786 58.2096 143.232 58.2358 142.648 58.2358C141.159 58.2358 139.852 58.0562 138.729 57.6968C137.606 57.3374 136.666 56.847 135.91 56.2256C135.154 55.6042 134.585 54.8742 134.203 54.0356C133.821 53.1971 133.63 52.2949 133.63 51.3291ZM146.377 50.0376C146.257 49.6707 146.07 49.3301 145.815 49.0156C145.568 48.6937 145.258 48.4167 144.883 48.1846C144.509 47.945 144.075 47.7578 143.581 47.623C143.086 47.4883 142.544 47.4209 141.952 47.4209C141.323 47.4209 140.75 47.492 140.234 47.6343C139.717 47.7765 139.264 47.9674 138.875 48.207C138.486 48.4466 138.16 48.7236 137.898 49.0381C137.643 49.3525 137.456 49.6857 137.336 50.0376H146.377ZM154.014 53.9346C154.912 54.4736 155.9 54.8704 156.979 55.125C158.057 55.3796 159.161 55.5068 160.292 55.5068C161.055 55.5068 161.692 55.4544 162.201 55.3496C162.71 55.2448 163.118 55.11 163.425 54.9453C163.732 54.7806 163.949 54.5934 164.076 54.3838C164.203 54.1742 164.267 53.9608 164.267 53.7437C164.267 53.4292 164.129 53.1597 163.852 52.9351C163.582 52.7104 163.133 52.5981 162.504 52.5981C162.212 52.5981 161.897 52.6169 161.561 52.6543C161.224 52.6917 160.868 52.7329 160.494 52.7778C160.127 52.8153 159.741 52.8527 159.337 52.8901C158.94 52.9276 158.536 52.9463 158.124 52.9463C157.226 52.9463 156.458 52.849 155.822 52.6543C155.193 52.4596 154.68 52.1938 154.283 51.8569C153.886 51.52 153.598 51.1232 153.418 50.6665C153.239 50.2023 153.149 49.7044 153.149 49.1729C153.149 48.499 153.306 47.8776 153.621 47.3086C153.935 46.7396 154.384 46.2492 154.968 45.8374C155.552 45.4181 156.256 45.0924 157.08 44.8604C157.911 44.6283 158.835 44.5122 159.854 44.5122C160.385 44.5122 160.939 44.5459 161.516 44.6133C162.1 44.6732 162.672 44.7555 163.234 44.8604C163.795 44.9652 164.334 45.0887 164.851 45.231C165.368 45.3657 165.824 45.5117 166.221 45.6689L165.177 48.252C164.331 47.9375 163.485 47.6904 162.639 47.5107C161.8 47.3236 160.935 47.23 160.044 47.23C159.423 47.23 158.895 47.2786 158.461 47.376C158.034 47.4658 157.686 47.5894 157.417 47.7466C157.147 47.8963 156.949 48.0723 156.821 48.2744C156.701 48.4691 156.642 48.675 156.642 48.8921C156.642 49.0493 156.672 49.1916 156.731 49.3188C156.799 49.4461 156.904 49.5584 157.046 49.6558C157.196 49.7456 157.387 49.8167 157.619 49.8691C157.858 49.9141 158.15 49.9365 158.495 49.9365C158.809 49.9365 159.142 49.9178 159.494 49.8804C159.846 49.8429 160.213 49.8055 160.595 49.7681C160.977 49.7231 161.37 49.682 161.774 49.6445C162.186 49.6071 162.605 49.5884 163.032 49.5884C163.825 49.5884 164.518 49.682 165.109 49.8691C165.708 50.0563 166.202 50.3184 166.592 50.6553C166.981 50.9922 167.273 51.389 167.468 51.8457C167.662 52.3024 167.76 52.8003 167.76 53.3394C167.76 54.0356 167.599 54.6833 167.277 55.2822C166.955 55.8812 166.476 56.4015 165.839 56.8433C165.203 57.2775 164.409 57.6182 163.458 57.8652C162.515 58.1123 161.422 58.2358 160.179 58.2358C159.416 58.2358 158.678 58.1872 157.967 58.0898C157.256 58 156.578 57.8765 155.934 57.7192C155.29 57.5545 154.684 57.3636 154.115 57.1465C153.553 56.9294 153.04 56.6973 152.576 56.4502L154.014 53.9346ZM171.286 53.9346C172.185 54.4736 173.173 54.8704 174.251 55.125C175.329 55.3796 176.433 55.5068 177.564 55.5068C178.328 55.5068 178.964 55.4544 179.473 55.3496C179.982 55.2448 180.39 55.11 180.697 54.9453C181.004 54.7806 181.221 54.5934 181.349 54.3838C181.476 54.1742 181.54 53.9608 181.54 53.7437C181.54 53.4292 181.401 53.1597 181.124 52.9351C180.854 52.7104 180.405 52.5981 179.776 52.5981C179.484 52.5981 179.17 52.6169 178.833 52.6543C178.496 52.6917 178.14 52.7329 177.766 52.7778C177.399 52.8153 177.014 52.8527 176.609 52.8901C176.213 52.9276 175.808 52.9463 175.396 52.9463C174.498 52.9463 173.731 52.849 173.094 52.6543C172.465 52.4596 171.952 52.1938 171.556 51.8569C171.159 51.52 170.871 51.1232 170.691 50.6665C170.511 50.2023 170.421 49.7044 170.421 49.1729C170.421 48.499 170.579 47.8776 170.893 47.3086C171.208 46.7396 171.657 46.2492 172.241 45.8374C172.825 45.4181 173.528 45.0924 174.352 44.8604C175.183 44.6283 176.108 44.5122 177.126 44.5122C177.658 44.5122 178.212 44.5459 178.788 44.6133C179.372 44.6732 179.945 44.7555 180.506 44.8604C181.068 44.9652 181.607 45.0887 182.124 45.231C182.64 45.3657 183.097 45.5117 183.494 45.6689L182.449 48.252C181.603 47.9375 180.757 47.6904 179.911 47.5107C179.073 47.3236 178.208 47.23 177.317 47.23C176.695 47.23 176.168 47.2786 175.733 47.376C175.307 47.4658 174.958 47.5894 174.689 47.7466C174.419 47.8963 174.221 48.0723 174.094 48.2744C173.974 48.4691 173.914 48.675 173.914 48.8921C173.914 49.0493 173.944 49.1916 174.004 49.3188C174.071 49.4461 174.176 49.5584 174.318 49.6558C174.468 49.7456 174.659 49.8167 174.891 49.8691C175.131 49.9141 175.423 49.9365 175.767 49.9365C176.082 49.9365 176.415 49.9178 176.767 49.8804C177.118 49.8429 177.485 49.8055 177.867 49.7681C178.249 49.7231 178.642 49.682 179.046 49.6445C179.458 49.6071 179.877 49.5884 180.304 49.5884C181.098 49.5884 181.79 49.682 182.382 49.8691C182.981 50.0563 183.475 50.3184 183.864 50.6553C184.254 50.9922 184.546 51.389 184.74 51.8457C184.935 52.3024 185.032 52.8003 185.032 53.3394C185.032 54.0356 184.871 54.6833 184.549 55.2822C184.227 55.8812 183.748 56.4015 183.112 56.8433C182.475 57.2775 181.682 57.6182 180.731 57.8652C179.788 58.1123 178.694 58.2358 177.452 58.2358C176.688 58.2358 175.951 58.1872 175.239 58.0898C174.528 58 173.85 57.8765 173.207 57.7192C172.563 57.5545 171.956 57.3636 171.387 57.1465C170.826 56.9294 170.313 56.6973 169.849 56.4502L171.286 53.9346Z" fill="url(#paint1_linear_2001_146)"/>
<defs>
<linearGradient id="paint0_linear_2001_146" x1="34" y1="54.7601" x2="34" y2="14.2001" gradientUnits="userSpaceOnUse">
<stop stop-color="#044D8C"/>
<stop offset="1" stop-color="#D97904"/>
</linearGradient>
<linearGradient id="paint1_linear_2001_146" x1="126.5" y1="6" x2="126.5" y2="64" gradientUnits="userSpaceOnUse">
<stop stop-color="#2A5574"/>
<stop offset="1" stop-color="#D97905"/>
</linearGradient>
</defs>
</svg>

