<svg width="103" height="118" viewBox="0 0 103 118" fill="none" xmlns="http://www.w3.org/2000/svg">
<g filter="url(#filter0_d_2001_86)">
<circle cx="55" cy="45" r="41" fill="white"/>
</g>
<g filter="url(#filter1_d_2001_86)">
<circle cx="53" cy="44" r="41" fill="#044D8C"/>
</g>
<path d="M69.9459 35.8889L53.7584 27.7951C53.6782 27.755 53.5897 27.7341 53.5 27.7341C53.4103 27.7341 53.3218 27.755 53.2416 27.7951L37.0541 35.8889C36.958 35.9369 36.8772 36.0107 36.8207 36.1021C36.7642 36.1935 36.7343 36.2988 36.7344 36.4063V52.5938C36.7338 52.7017 36.7634 52.8076 36.8199 52.8996C36.8764 52.9915 36.9575 53.0658 37.0541 53.1141L53.2416 61.2078C53.3218 61.2479 53.4103 61.2688 53.5 61.2688C53.5897 61.2688 53.6782 61.2479 53.7584 61.2078L69.9459 53.1141C70.0425 53.0658 70.1236 52.9915 70.1801 52.8996C70.2366 52.8076 70.2662 52.7017 70.2656 52.5938V36.4063C70.2657 36.2988 70.2358 36.1935 70.1793 36.1021C70.1229 36.0107 70.042 35.9369 69.9459 35.8889ZM53.5 43.8537L48.9808 41.5938L63.4258 33.9203L68.3977 36.4063L53.5 43.8537ZM44.3558 39.2813L58.8008 31.6078L62.154 33.2844L47.7107 40.959L44.3558 39.2813ZM43.6719 40.2323L47.1406 41.9667V46.5732L45.815 45.2475C45.7066 45.1391 45.5596 45.0782 45.4063 45.0781H43.6719V40.2323ZM53.5 28.9589L57.5307 30.9719L43.0857 38.6465L38.6052 36.4063L53.5 28.9589ZM37.8906 37.3417L42.5156 39.6542V45.6563C42.5156 45.8096 42.5765 45.9567 42.685 46.0651C42.7934 46.1735 42.9404 46.2344 43.0938 46.2344H45.1669L47.31 48.3775C47.3909 48.4583 47.4939 48.5134 47.606 48.5357C47.7181 48.558 47.8344 48.5465 47.94 48.5028C48.0456 48.459 48.1359 48.3849 48.1994 48.2899C48.2629 48.1948 48.2969 48.0831 48.2969 47.9688V42.5448L52.9219 44.8573V59.7521L37.8906 52.2365V37.3417ZM54.0781 59.7521V44.8573L69.1094 37.3417V52.2365L54.0781 59.7521Z" fill="#FAFAFA"/>
<path d="M0.878906 109.123C0.878906 110.419 1.33789 111.438 2.25586 112.18C3.17383 112.915 4.39453 113.283 5.91797 113.283C7.44141 113.283 8.64583 112.912 9.53125 112.17C10.4167 111.428 10.8594 110.477 10.8594 109.318C10.8594 108.16 10.5208 107.261 9.84375 106.623C9.16667 105.979 8.08268 105.438 6.5918 105.002C5.10742 104.559 4.12435 104.156 3.64258 103.791C3.16081 103.42 2.91992 102.919 2.91992 102.287C2.91992 101.584 3.1543 101.031 3.62305 100.627C4.0918 100.217 4.82747 100.012 5.83008 100.012C6.81966 100.012 7.5651 100.246 8.06641 100.715C8.57422 101.184 8.82812 101.805 8.82812 102.58V102.746H10.5957V102.58C10.5957 101.382 10.1628 100.402 9.29688 99.6406C8.4375 98.8789 7.2819 98.498 5.83008 98.498C4.36523 98.498 3.22266 98.8626 2.40234 99.5918C1.58203 100.321 1.17188 101.232 1.17188 102.326C1.17188 103.446 1.49089 104.302 2.12891 104.895C2.77344 105.487 3.84766 106.011 5.35156 106.467C6.8099 106.903 7.79948 107.32 8.32031 107.717C8.84766 108.114 9.11133 108.648 9.11133 109.318C9.11133 110.048 8.83789 110.64 8.29102 111.096C7.74414 111.545 6.95312 111.77 5.91797 111.77C4.88932 111.77 4.08529 111.551 3.50586 111.115C2.93294 110.673 2.64648 110.008 2.64648 109.123V108.938H0.878906V109.123ZM12.4316 108.107C12.4316 109.637 12.8451 110.884 13.6719 111.848C14.4987 112.805 15.6868 113.283 17.2363 113.283C18.1934 113.283 19.0039 113.078 19.668 112.668C20.332 112.251 20.8203 111.805 21.1328 111.33L20.0293 110.441C19.7428 110.832 19.3652 111.167 18.8965 111.447C18.4342 111.727 17.8809 111.867 17.2363 111.867C16.1947 111.867 15.4232 111.506 14.9219 110.783C14.4271 110.061 14.1797 109.169 14.1797 108.107V107.795C14.1797 106.734 14.4141 105.842 14.8828 105.119C15.3581 104.396 16.0742 104.035 17.0312 104.035C17.8385 104.035 18.4505 104.302 18.8672 104.836C19.2839 105.363 19.4922 105.998 19.4922 106.74V106.955H13.4766V108.322H21.2109V107.629C21.2109 106.086 20.8431 104.868 20.1074 103.977C19.3783 103.078 18.3301 102.629 16.9629 102.629C15.6022 102.629 14.5052 103.111 13.6719 104.074C12.8451 105.031 12.4316 106.271 12.4316 107.795V108.107ZM23.3594 113H25.0684V105.852C25.3158 105.35 25.6608 104.943 26.1035 104.631C26.5462 104.318 27.054 104.162 27.627 104.162C28.304 104.162 28.8249 104.341 29.1895 104.699C29.5605 105.051 29.7461 105.637 29.7461 106.457V113H31.4551V106.467C31.4551 105.113 31.1556 104.149 30.5566 103.576C29.9577 103.003 29.1536 102.717 28.1445 102.717C27.4935 102.717 26.901 102.85 26.3672 103.117C25.8398 103.384 25.3939 103.752 25.0293 104.221H24.9805L24.9121 102.912H23.3594V113ZM33.5645 108.107C33.5645 109.579 33.9453 110.796 34.707 111.76C35.4688 112.717 36.4909 113.195 37.7734 113.195C38.4831 113.195 39.1016 113.046 39.6289 112.746C40.1562 112.447 40.5501 112.089 40.8105 111.672H40.8691L40.9375 113H42.4902V98.1074H40.7715V104.094C40.4785 103.677 40.0814 103.345 39.5801 103.098C39.0853 102.844 38.4831 102.717 37.7734 102.717C36.4974 102.717 35.4753 103.195 34.707 104.152C33.9453 105.109 33.5645 106.324 33.5645 107.795V108.107ZM35.3125 108.107V107.795C35.3125 106.753 35.5404 105.881 35.9961 105.178C36.4518 104.475 37.1647 104.123 38.1348 104.123C38.7858 104.123 39.3392 104.299 39.7949 104.65C40.2507 105.002 40.5762 105.406 40.7715 105.861V110.031C40.5697 110.487 40.2409 110.894 39.7852 111.252C39.3359 111.604 38.7858 111.779 38.1348 111.779C37.1647 111.779 36.4518 111.428 35.9961 110.725C35.5404 110.021 35.3125 109.149 35.3125 108.107ZM50.2051 113H51.9727V107.395H54.7656C56.2956 107.395 57.4674 106.997 58.2812 106.203C59.0951 105.402 59.502 104.357 59.502 103.068C59.502 101.779 59.0951 100.744 58.2812 99.9629C57.4674 99.1751 56.2956 98.7812 54.7656 98.7812H50.2051V113ZM51.9727 105.93V100.246H54.7656C55.8659 100.246 56.6341 100.52 57.0703 101.066C57.513 101.607 57.7344 102.274 57.7344 103.068C57.7344 103.863 57.513 104.54 57.0703 105.1C56.6341 105.653 55.8659 105.93 54.7656 105.93H51.9727ZM60.6836 110.041C60.6836 111.057 61.0124 111.835 61.6699 112.375C62.334 112.915 63.1478 113.186 64.1113 113.186C64.9512 113.186 65.6348 113.023 66.1621 112.697C66.696 112.372 67.0833 112.001 67.3242 111.584C67.3438 111.844 67.3893 112.105 67.4609 112.365C67.5391 112.626 67.6237 112.837 67.7148 113H69.3652V112.844C69.248 112.557 69.1569 112.229 69.0918 111.857C69.0267 111.48 68.9941 111.079 68.9941 110.656V106.066C68.9941 104.914 68.6621 104.055 67.998 103.488C67.3405 102.915 66.4095 102.629 65.2051 102.629C63.9941 102.629 63.0339 102.925 62.3242 103.518C61.6211 104.104 61.2695 104.794 61.2695 105.588V105.686H62.9785V105.607C62.9785 105.171 63.1478 104.797 63.4863 104.484C63.8314 104.165 64.3913 104.006 65.166 104.006C65.9342 104.006 66.4779 104.195 66.7969 104.572C67.1224 104.95 67.2852 105.448 67.2852 106.066V106.799H64.9805C63.724 106.799 62.6921 107.085 61.8848 107.658C61.084 108.231 60.6836 109.025 60.6836 110.041ZM62.3926 109.953C62.3926 109.367 62.627 108.902 63.0957 108.557C63.5645 108.212 64.2578 108.039 65.1758 108.039H67.2852V109.494C67.2852 110.054 66.9954 110.581 66.416 111.076C65.8366 111.564 65.1888 111.809 64.4727 111.809C63.7695 111.809 63.2454 111.646 62.9004 111.32C62.5618 110.995 62.3926 110.539 62.3926 109.953ZM71.7578 113H73.4668V105.881C73.6686 105.419 73.9746 105.035 74.3848 104.729C74.8014 104.423 75.293 104.27 75.8594 104.27C76.0352 104.27 76.1947 104.276 76.3379 104.289C76.4811 104.302 76.6146 104.322 76.7383 104.348V102.756C76.6732 102.73 76.5625 102.704 76.4062 102.678C76.25 102.645 76.1035 102.629 75.9668 102.629C75.3809 102.629 74.8763 102.788 74.4531 103.107C74.0299 103.42 73.6882 103.791 73.4277 104.221H73.3789L73.3105 102.912H71.7578V113ZM77.5879 108.107C77.5879 109.637 77.998 110.884 78.8184 111.848C79.6452 112.805 80.7747 113.283 82.207 113.283C83.5417 113.283 84.554 112.922 85.2441 112.199C85.9408 111.477 86.2891 110.656 86.2891 109.738V109.68H84.6289V109.738C84.6289 110.318 84.4336 110.819 84.043 111.242C83.6589 111.659 83.0469 111.867 82.207 111.867C81.237 111.867 80.5143 111.506 80.0391 110.783C79.5703 110.061 79.3359 109.169 79.3359 108.107V107.795C79.3359 106.721 79.5703 105.829 80.0391 105.119C80.5143 104.403 81.2402 104.045 82.2168 104.045C83.0501 104.045 83.6589 104.253 84.043 104.67C84.4336 105.087 84.6289 105.581 84.6289 106.154V106.213H86.2891V106.154C86.2891 105.236 85.944 104.419 85.2539 103.703C84.5638 102.987 83.5482 102.629 82.207 102.629C80.7747 102.629 79.6452 103.107 78.8184 104.064C77.998 105.021 77.5879 106.265 77.5879 107.795V108.107ZM87.7441 108.107C87.7441 109.637 88.1576 110.884 88.9844 111.848C89.8112 112.805 90.9993 113.283 92.5488 113.283C93.5059 113.283 94.3164 113.078 94.9805 112.668C95.6445 112.251 96.1328 111.805 96.4453 111.33L95.3418 110.441C95.0553 110.832 94.6777 111.167 94.209 111.447C93.7467 111.727 93.1934 111.867 92.5488 111.867C91.5072 111.867 90.7357 111.506 90.2344 110.783C89.7396 110.061 89.4922 109.169 89.4922 108.107V107.795C89.4922 106.734 89.7266 105.842 90.1953 105.119C90.6706 104.396 91.3867 104.035 92.3438 104.035C93.151 104.035 93.763 104.302 94.1797 104.836C94.5964 105.363 94.8047 105.998 94.8047 106.74V106.955H88.7891V108.322H96.5234V107.629C96.5234 106.086 96.1556 104.868 95.4199 103.977C94.6908 103.078 93.6426 102.629 92.2754 102.629C90.9147 102.629 89.8177 103.111 88.9844 104.074C88.1576 105.031 87.7441 106.271 87.7441 107.795V108.107ZM98.7402 113H100.449V98.1074H98.7402V113Z" fill="#2F2F2F"/>
<defs>
<filter id="filter0_d_2001_86" x="13" y="3" width="90" height="90" filterUnits="userSpaceOnUse" color-interpolation-filters="sRGB">
<feFlood flood-opacity="0" result="BackgroundImageFix"/>
<feColorMatrix in="SourceAlpha" type="matrix" values="0 0 0 0 0 0 0 0 0 0 0 0 0 0 0 0 0 0 127 0" result="hardAlpha"/>
<feOffset dx="3" dy="3"/>
<feGaussianBlur stdDeviation="2"/>
<feComposite in2="hardAlpha" operator="out"/>
<feColorMatrix type="matrix" values="0 0 0 0 0.366667 0 0 0 0 0.366667 0 0 0 0 0.366667 0 0 0 0.2 0"/>
<feBlend mode="normal" in2="BackgroundImageFix" result="effect1_dropShadow_2001_86"/>
<feBlend mode="normal" in="SourceGraphic" in2="effect1_dropShadow_2001_86" result="shape"/>
</filter>
<filter id="filter1_d_2001_86" x="6" y="0" width="94" height="94" filterUnits="userSpaceOnUse" color-interpolation-filters="sRGB">
<feFlood flood-opacity="0" result="BackgroundImageFix"/>
<feColorMatrix in="SourceAlpha" type="matrix" values="0 0 0 0 0 0 0 0 0 0 0 0 0 0 0 0 0 0 127 0" result="hardAlpha"/>
<feOffset dy="3"/>
<feGaussianBlur stdDeviation="3"/>
<feComposite in2="hardAlpha" operator="out"/>
<feColorMatrix type="matrix" values="0 0 0 0 1 0 0 0 0 1 0 0 0 0 1 0 0 0 0.2 0"/>
<feBlend mode="normal" in2="BackgroundImageFix" result="effect1_dropShadow_2001_86"/>
<feBlend mode="normal" in="SourceGraphic" in2="effect1_dropShadow_2001_86" result="shape"/>
</filter>
</defs>
</svg>
