<svg width="97" height="118" viewBox="0 0 97 118" fill="none" xmlns="http://www.w3.org/2000/svg">
<g filter="url(#filter0_d_2001_76)">
<circle cx="49" cy="45" r="41" fill="white"/>
</g>
<g filter="url(#filter1_d_2001_76)">
<circle cx="47" cy="44" r="41" fill="#044D8C"/>
</g>
<path d="M55.6995 42.7183V36.2839C55.6995 36.0997 55.6144 35.9296 55.494 35.7949L48.2802 28.2197C48.1455 28.0781 47.9541 28 47.7629 28H36.3255C34.214 28 32.5274 29.7219 32.5274 31.8337V53.4611C32.5274 55.5728 34.214 57.2664 36.3255 57.2664H45.3536C47.0612 60.1009 50.1652 62 53.7011 62C59.0725 62 63.4589 57.6348 63.4589 52.2564C63.4662 47.5582 60.0929 43.6324 55.6995 42.7183ZM48.4716 30.4874L53.3115 35.5822H50.1722C49.2368 35.5822 48.4716 34.81 48.4716 33.8746V30.4874ZM36.3255 55.8491C35.0005 55.8491 33.9447 54.7861 33.9447 53.4611V31.8337C33.9447 30.5014 35.0005 29.4174 36.3255 29.4174H47.0542V33.8746C47.0542 35.5965 48.4503 36.9996 50.1722 36.9996H54.2821V42.5339C54.0697 42.5269 53.8995 42.5056 53.7153 42.5056C51.2422 42.5056 48.9676 43.4553 47.2527 44.9434H38.2531C37.8632 44.9434 37.5444 45.2622 37.5444 45.6518C37.5444 46.0417 37.8632 46.3605 38.2531 46.3605H45.9347C45.4314 47.0692 45.0133 47.7779 44.6875 48.5574H38.2531C37.8632 48.5574 37.5444 48.8762 37.5444 49.2661C37.5444 49.6557 37.8632 49.9747 38.2531 49.9747H44.2268C44.0496 50.6834 43.9575 51.4699 43.9575 52.2564C43.9575 53.5319 44.2055 54.7933 44.6519 55.8563H36.3255V55.8491ZM53.7083 60.5899C49.1165 60.5899 45.3819 56.8553 45.3819 52.2634C45.3819 47.6715 49.1092 43.937 53.7083 43.937C58.3072 43.937 62.0345 47.6715 62.0345 52.2634C62.0345 56.8553 58.3002 60.5899 53.7083 60.5899Z" fill="#FAFAFA"/>
<path d="M38.2531 42.8104H45.4314C45.8213 42.8104 46.1401 42.4913 46.1401 42.1017C46.1401 41.7118 45.8213 41.393 45.4314 41.393H38.2531C37.8632 41.393 37.5444 41.7118 37.5444 42.1017C37.5444 42.4913 37.8632 42.8104 38.2531 42.8104Z" fill="#FAFAFA"/>
<path d="M53.4744 47.8912C53.5312 47.9053 53.5877 47.9125 53.6445 47.9125C53.7153 47.9125 53.7792 47.9053 53.843 47.884C54.7784 47.9621 55.5083 48.7416 55.5083 49.6912C55.5083 50.0808 55.8271 50.3996 56.2167 50.3996C56.6066 50.3996 56.9254 50.0808 56.9254 49.6912C56.9254 48.1322 55.8201 46.8282 54.3532 46.5234V46.07C54.3532 45.6801 54.0341 45.3613 53.6445 45.3613C53.2546 45.3613 52.9358 45.6801 52.9358 46.07V46.552C51.5185 46.892 50.4627 48.1748 50.4627 49.6912C50.4627 51.4769 51.9154 52.9226 53.6941 52.9226C54.6933 52.9226 55.5083 53.7373 55.5083 54.7365C55.5083 55.7357 54.7003 56.5578 53.6941 56.5578C52.6949 56.5578 51.8801 55.7427 51.8801 54.7435C51.8801 54.3539 51.561 54.0349 51.1714 54.0349C50.7815 54.0349 50.4627 54.3539 50.4627 54.7435C50.4627 56.2672 51.5185 57.5427 52.9358 57.8828V58.6127C52.9358 59.0026 53.2546 59.3214 53.6445 59.3214C54.0341 59.3214 54.3532 59.0026 54.3532 58.6127V57.904C55.8201 57.5993 56.9254 56.2955 56.9254 54.7365C56.9254 52.9508 55.4728 51.5052 53.6941 51.5052C52.6949 51.5052 51.8801 50.6902 51.8801 49.6912C51.8801 48.7698 52.5745 47.9976 53.4744 47.8912Z" fill="#FAFAFA"/>
<path d="M7.08398 106.33C7.08398 108.518 7.6276 110.223 8.71484 111.447C9.80859 112.671 11.2865 113.283 13.1484 113.283C14.3594 113.283 15.3913 113.088 16.2441 112.697C17.1035 112.307 17.7415 111.893 18.1582 111.457V105.939H12.9531V107.404H16.4492V110.822C15.987 111.148 15.4987 111.389 14.9844 111.545C14.4701 111.695 13.8581 111.77 13.1484 111.77C11.7878 111.77 10.7331 111.288 9.98438 110.324C9.24219 109.361 8.87109 108.029 8.87109 106.33V105.451C8.87109 103.752 9.24219 102.424 9.98438 101.467C10.7266 100.503 11.7161 100.021 12.9531 100.021C14.0469 100.021 14.8932 100.318 15.4922 100.91C16.0911 101.496 16.3906 102.134 16.3906 102.824V102.951H18.1582L18.1484 102.814C18.0573 101.636 17.5658 100.624 16.6738 99.7773C15.7884 98.9245 14.5514 98.498 12.9629 98.498C11.2181 98.498 9.80208 99.11 8.71484 100.334C7.6276 101.558 7.08398 103.264 7.08398 105.451V106.33ZM20.1699 108.107C20.1699 109.637 20.5833 110.884 21.4102 111.848C22.237 112.805 23.4251 113.283 24.9746 113.283C25.9316 113.283 26.7422 113.078 27.4062 112.668C28.0703 112.251 28.5586 111.805 28.8711 111.33L27.7676 110.441C27.4811 110.832 27.1035 111.167 26.6348 111.447C26.1725 111.727 25.6191 111.867 24.9746 111.867C23.9329 111.867 23.1615 111.506 22.6602 110.783C22.1654 110.061 21.918 109.169 21.918 108.107V107.795C21.918 106.734 22.1523 105.842 22.6211 105.119C23.0964 104.396 23.8125 104.035 24.7695 104.035C25.5768 104.035 26.1888 104.302 26.6055 104.836C27.0221 105.363 27.2305 105.998 27.2305 106.74V106.955H21.2148V108.322H28.9492V107.629C28.9492 106.086 28.5814 104.868 27.8457 103.977C27.1165 103.078 26.0684 102.629 24.7012 102.629C23.3405 102.629 22.2435 103.111 21.4102 104.074C20.5833 105.031 20.1699 106.271 20.1699 107.795V108.107ZM29.6914 104.24H35.4141V102.912H29.6914V104.24ZM31.498 110.471C31.498 111.454 31.7161 112.17 32.1523 112.619C32.5885 113.062 33.1745 113.283 33.9102 113.283C34.2227 113.283 34.5091 113.254 34.7695 113.195C35.0299 113.143 35.2415 113.078 35.4043 113V111.594C35.2285 111.659 35.0527 111.711 34.877 111.75C34.7077 111.783 34.5352 111.799 34.3594 111.799C33.9622 111.799 33.6693 111.701 33.4805 111.506C33.2982 111.311 33.207 110.965 33.207 110.471V100.236H31.498V103.42V103.693V110.471ZM42.1621 113H43.9297V107.395H46.7227C48.2526 107.395 49.4245 106.997 50.2383 106.203C51.0521 105.402 51.459 104.357 51.459 103.068C51.459 101.779 51.0521 100.744 50.2383 99.9629C49.4245 99.1751 48.2526 98.7812 46.7227 98.7812H42.1621V113ZM43.9297 105.93V100.246H46.7227C47.8229 100.246 48.5911 100.52 49.0273 101.066C49.4701 101.607 49.6914 102.274 49.6914 103.068C49.6914 103.863 49.4701 104.54 49.0273 105.1C48.5911 105.653 47.8229 105.93 46.7227 105.93H43.9297ZM53.3633 113H55.0723V105.881C55.2741 105.419 55.5801 105.035 55.9902 104.729C56.4069 104.423 56.8984 104.27 57.4648 104.27C57.6406 104.27 57.8001 104.276 57.9434 104.289C58.0866 104.302 58.2201 104.322 58.3438 104.348V102.756C58.2786 102.73 58.168 102.704 58.0117 102.678C57.8555 102.645 57.709 102.629 57.5723 102.629C56.9863 102.629 56.4818 102.788 56.0586 103.107C55.6354 103.42 55.2936 103.791 55.0332 104.221H54.9844L54.916 102.912H53.3633V113ZM60.0918 113H61.8008V102.912H60.0918V113ZM59.8672 99.7578C59.8672 100.051 59.9583 100.298 60.1406 100.5C60.3294 100.702 60.5964 100.803 60.9414 100.803C61.293 100.803 61.5599 100.705 61.7422 100.51C61.931 100.308 62.0254 100.057 62.0254 99.7578C62.0254 99.4648 61.931 99.2207 61.7422 99.0254C61.5599 98.8236 61.293 98.7227 60.9414 98.7227C60.5964 98.7227 60.3294 98.8236 60.1406 99.0254C59.9583 99.2207 59.8672 99.4648 59.8672 99.7578ZM64.0957 108.107C64.0957 109.637 64.5059 110.884 65.3262 111.848C66.153 112.805 67.2826 113.283 68.7148 113.283C70.0495 113.283 71.0618 112.922 71.752 112.199C72.4486 111.477 72.7969 110.656 72.7969 109.738V109.68H71.1367V109.738C71.1367 110.318 70.9414 110.819 70.5508 111.242C70.1667 111.659 69.5547 111.867 68.7148 111.867C67.7448 111.867 67.0221 111.506 66.5469 110.783C66.0781 110.061 65.8438 109.169 65.8438 108.107V107.795C65.8438 106.721 66.0781 105.829 66.5469 105.119C67.0221 104.403 67.748 104.045 68.7246 104.045C69.5579 104.045 70.1667 104.253 70.5508 104.67C70.9414 105.087 71.1367 105.581 71.1367 106.154V106.213H72.7969V106.154C72.7969 105.236 72.4518 104.419 71.7617 103.703C71.0716 102.987 70.056 102.629 68.7148 102.629C67.2826 102.629 66.153 103.107 65.3262 104.064C64.5059 105.021 64.0957 106.265 64.0957 107.795V108.107ZM74.252 108.107C74.252 109.637 74.6654 110.884 75.4922 111.848C76.319 112.805 77.5072 113.283 79.0566 113.283C80.0137 113.283 80.8242 113.078 81.4883 112.668C82.1523 112.251 82.6406 111.805 82.9531 111.33L81.8496 110.441C81.5632 110.832 81.1855 111.167 80.7168 111.447C80.2546 111.727 79.7012 111.867 79.0566 111.867C78.015 111.867 77.2435 111.506 76.7422 110.783C76.2474 110.061 76 109.169 76 108.107V107.795C76 106.734 76.2344 105.842 76.7031 105.119C77.1784 104.396 77.8945 104.035 78.8516 104.035C79.6589 104.035 80.2708 104.302 80.6875 104.836C81.1042 105.363 81.3125 105.998 81.3125 106.74V106.955H75.2969V108.322H83.0312V107.629C83.0312 106.086 82.6634 104.868 81.9277 103.977C81.1986 103.078 80.1504 102.629 78.7832 102.629C77.4225 102.629 76.3255 103.111 75.4922 104.074C74.6654 105.031 74.252 106.271 74.252 107.795V108.107Z" fill="#2F2F2F"/>
<defs>
<filter id="filter0_d_2001_76" x="7" y="1" width="90" height="90" filterUnits="userSpaceOnUse" color-interpolation-filters="sRGB">
<feFlood flood-opacity="0" result="BackgroundImageFix"/>
<feColorMatrix in="SourceAlpha" type="matrix" values="0 0 0 0 0 0 0 0 0 0 0 0 0 0 0 0 0 0 127 0" result="hardAlpha"/>
<feOffset dx="3" dy="1"/>
<feGaussianBlur stdDeviation="2"/>
<feComposite in2="hardAlpha" operator="out"/>
<feColorMatrix type="matrix" values="0 0 0 0 0.366667 0 0 0 0 0.366667 0 0 0 0 0.366667 0 0 0 0.2 0"/>
<feBlend mode="normal" in2="BackgroundImageFix" result="effect1_dropShadow_2001_76"/>
<feBlend mode="normal" in="SourceGraphic" in2="effect1_dropShadow_2001_76" result="shape"/>
</filter>
<filter id="filter1_d_2001_76" x="0" y="0" width="94" height="94" filterUnits="userSpaceOnUse" color-interpolation-filters="sRGB">
<feFlood flood-opacity="0" result="BackgroundImageFix"/>
<feColorMatrix in="SourceAlpha" type="matrix" values="0 0 0 0 0 0 0 0 0 0 0 0 0 0 0 0 0 0 127 0" result="hardAlpha"/>
<feOffset dy="3"/>
<feGaussianBlur stdDeviation="3"/>
<feComposite in2="hardAlpha" operator="out"/>
<feColorMatrix type="matrix" values="0 0 0 0 1 0 0 0 0 1 0 0 0 0 1 0 0 0 0.2 0"/>
<feBlend mode="normal" in2="BackgroundImageFix" result="effect1_dropShadow_2001_76"/>
<feBlend mode="normal" in="SourceGraphic" in2="effect1_dropShadow_2001_76" result="shape"/>
</filter>
</defs>
</svg>
