<svg width="103" height="118" viewBox="0 0 103 118" fill="none" xmlns="http://www.w3.org/2000/svg">
<g filter="url(#filter0_d_2001_93)">
<circle cx="55" cy="45" r="41" fill="white"/>
</g>
<g filter="url(#filter1_d_2001_93)">
<circle cx="53" cy="44" r="41" fill="#044D8C"/>
</g>
<path d="M53.5 28C46.7781 28 41.3096 33.4684 41.3096 40.1904C41.3096 42.4033 42.3021 44.7832 42.3437 44.8836C42.6642 45.6445 43.2967 46.8262 43.7527 47.5189L52.111 60.1832C52.453 60.7024 52.9593 61 53.5 61C54.0407 61 54.5469 60.7024 54.889 60.184L63.248 47.5189C63.7047 46.8262 64.3365 45.6445 64.657 44.8836C64.6986 44.784 65.6903 42.404 65.6903 40.1904C65.6903 33.4684 60.2219 28 53.5 28ZM63.3347 44.3272C63.0486 45.0091 62.4599 46.1084 62.0504 46.7294L53.6914 59.3945C53.5265 59.6447 53.4742 59.6447 53.3092 59.3945L44.9502 46.7294C44.5408 46.1084 43.9521 45.0084 43.666 44.3265C43.6538 44.2971 42.7438 42.1064 42.7438 40.1904C42.7438 34.2594 47.569 29.4342 53.5 29.4342C59.4309 29.4342 64.2562 34.2594 64.2562 40.1904C64.2562 42.1093 63.344 44.3057 63.3347 44.3272Z" fill="#FAFAFA"/>
<path d="M53.5 33.7374C49.9411 33.7374 47.0463 36.6329 47.0463 40.1911C47.0463 43.7492 49.9411 46.6448 53.5 46.6448C57.0588 46.6448 59.9537 43.7492 59.9537 40.1911C59.9537 36.6329 57.0588 33.7374 53.5 33.7374ZM53.5 45.2106C50.7328 45.2106 48.4804 42.959 48.4804 40.1911C48.4804 37.4232 50.7328 35.1715 53.5 35.1715C56.2672 35.1715 58.5195 37.4232 58.5195 40.1911C58.5195 42.959 56.2672 45.2106 53.5 45.2106Z" fill="#FAFAFA"/>
<path d="M1.61133 113H3.37891V106.652H9.16992V105.188H3.37891V100.246H10.0879V98.7812H1.61133V113ZM12.0996 113H13.8086V102.912H12.0996V113ZM11.875 99.7578C11.875 100.051 11.9661 100.298 12.1484 100.5C12.3372 100.702 12.6042 100.803 12.9492 100.803C13.3008 100.803 13.5677 100.705 13.75 100.51C13.9388 100.308 14.0332 100.057 14.0332 99.7578C14.0332 99.4648 13.9388 99.2207 13.75 99.0254C13.5677 98.8236 13.3008 98.7227 12.9492 98.7227C12.6042 98.7227 12.3372 98.8236 12.1484 99.0254C11.9661 99.2207 11.875 99.4648 11.875 99.7578ZM16.7188 113H18.4277V105.852C18.6751 105.35 19.0202 104.943 19.4629 104.631C19.9056 104.318 20.4134 104.162 20.9863 104.162C21.6634 104.162 22.1842 104.341 22.5488 104.699C22.9199 105.051 23.1055 105.637 23.1055 106.457V113H24.8145V106.467C24.8145 105.113 24.515 104.149 23.916 103.576C23.3171 103.003 22.513 102.717 21.5039 102.717C20.8529 102.717 20.2604 102.85 19.7266 103.117C19.1992 103.384 18.7533 103.752 18.3887 104.221H18.3398L18.2715 102.912H16.7188V113ZM26.9238 108.107C26.9238 109.579 27.3047 110.796 28.0664 111.76C28.8281 112.717 29.8503 113.195 31.1328 113.195C31.8424 113.195 32.4609 113.046 32.9883 112.746C33.5156 112.447 33.9095 112.089 34.1699 111.672H34.2285L34.2969 113H35.8496V98.1074H34.1309V104.094C33.8379 103.677 33.4408 103.345 32.9395 103.098C32.4447 102.844 31.8424 102.717 31.1328 102.717C29.8568 102.717 28.8346 103.195 28.0664 104.152C27.3047 105.109 26.9238 106.324 26.9238 107.795V108.107ZM28.6719 108.107V107.795C28.6719 106.753 28.8997 105.881 29.3555 105.178C29.8112 104.475 30.5241 104.123 31.4941 104.123C32.1452 104.123 32.6986 104.299 33.1543 104.65C33.61 105.002 33.9355 105.406 34.1309 105.861V110.031C33.929 110.487 33.6003 110.894 33.1445 111.252C32.6953 111.604 32.1452 111.779 31.4941 111.779C30.5241 111.779 29.8112 111.428 29.3555 110.725C28.8997 110.021 28.6719 109.149 28.6719 108.107ZM42.793 110.041C42.793 111.057 43.1217 111.835 43.7793 112.375C44.4434 112.915 45.2572 113.186 46.2207 113.186C47.0605 113.186 47.7441 113.023 48.2715 112.697C48.8053 112.372 49.1927 112.001 49.4336 111.584C49.4531 111.844 49.4987 112.105 49.5703 112.365C49.6484 112.626 49.7331 112.837 49.8242 113H51.4746V112.844C51.3574 112.557 51.2663 112.229 51.2012 111.857C51.1361 111.48 51.1035 111.079 51.1035 110.656V106.066C51.1035 104.914 50.7715 104.055 50.1074 103.488C49.4499 102.915 48.5189 102.629 47.3145 102.629C46.1035 102.629 45.1432 102.925 44.4336 103.518C43.7305 104.104 43.3789 104.794 43.3789 105.588V105.686H45.0879V105.607C45.0879 105.171 45.2572 104.797 45.5957 104.484C45.9408 104.165 46.5007 104.006 47.2754 104.006C48.0436 104.006 48.5872 104.195 48.9062 104.572C49.2318 104.95 49.3945 105.448 49.3945 106.066V106.799H47.0898C45.8333 106.799 44.8014 107.085 43.9941 107.658C43.1934 108.231 42.793 109.025 42.793 110.041ZM44.502 109.953C44.502 109.367 44.7363 108.902 45.2051 108.557C45.6738 108.212 46.3672 108.039 47.2852 108.039H49.3945V109.494C49.3945 110.054 49.1048 110.581 48.5254 111.076C47.946 111.564 47.2982 111.809 46.582 111.809C45.8789 111.809 45.3548 111.646 45.0098 111.32C44.6712 110.995 44.502 110.539 44.502 109.953ZM58.0273 109.123C58.0273 110.419 58.4863 111.438 59.4043 112.18C60.3223 112.915 61.543 113.283 63.0664 113.283C64.5898 113.283 65.7943 112.912 66.6797 112.17C67.5651 111.428 68.0078 110.477 68.0078 109.318C68.0078 108.16 67.6693 107.261 66.9922 106.623C66.3151 105.979 65.2311 105.438 63.7402 105.002C62.2559 104.559 61.2728 104.156 60.791 103.791C60.3092 103.42 60.0684 102.919 60.0684 102.287C60.0684 101.584 60.3027 101.031 60.7715 100.627C61.2402 100.217 61.9759 100.012 62.9785 100.012C63.9681 100.012 64.7135 100.246 65.2148 100.715C65.7227 101.184 65.9766 101.805 65.9766 102.58V102.746H67.7441V102.58C67.7441 101.382 67.3112 100.402 66.4453 99.6406C65.5859 98.8789 64.4303 98.498 62.9785 98.498C61.5137 98.498 60.3711 98.8626 59.5508 99.5918C58.7305 100.321 58.3203 101.232 58.3203 102.326C58.3203 103.446 58.6393 104.302 59.2773 104.895C59.9219 105.487 60.9961 106.011 62.5 106.467C63.9583 106.903 64.9479 107.32 65.4688 107.717C65.9961 108.114 66.2598 108.648 66.2598 109.318C66.2598 110.048 65.9863 110.64 65.4395 111.096C64.8926 111.545 64.1016 111.77 63.0664 111.77C62.0378 111.77 61.2337 111.551 60.6543 111.115C60.0814 110.673 59.7949 110.008 59.7949 109.123V108.938H58.0273V109.123ZM68.7891 104.24H74.5117V102.912H68.7891V104.24ZM70.5957 110.471C70.5957 111.454 70.8138 112.17 71.25 112.619C71.6862 113.062 72.2721 113.283 73.0078 113.283C73.3203 113.283 73.6068 113.254 73.8672 113.195C74.1276 113.143 74.3392 113.078 74.502 113V111.594C74.3262 111.659 74.1504 111.711 73.9746 111.75C73.8053 111.783 73.6328 111.799 73.457 111.799C73.0599 111.799 72.7669 111.701 72.5781 111.506C72.3958 111.311 72.3047 110.965 72.3047 110.471V100.236H70.5957V103.42V103.693V110.471ZM75.5566 108.107C75.5566 109.631 75.9863 110.874 76.8457 111.838C77.7051 112.801 78.8509 113.283 80.2832 113.283C81.722 113.283 82.8678 112.801 83.7207 111.838C84.5801 110.874 85.0098 109.631 85.0098 108.107V107.795C85.0098 106.271 84.5801 105.031 83.7207 104.074C82.8678 103.111 81.722 102.629 80.2832 102.629C78.8509 102.629 77.7051 103.111 76.8457 104.074C75.9863 105.031 75.5566 106.271 75.5566 107.795V108.107ZM77.3047 107.795C77.3047 106.74 77.5553 105.852 78.0566 105.129C78.5579 104.406 79.3001 104.045 80.2832 104.045C81.2663 104.045 82.0085 104.406 82.5098 105.129C83.0111 105.852 83.2617 106.74 83.2617 107.795V108.107C83.2617 109.169 83.0111 110.061 82.5098 110.783C82.0085 111.506 81.2663 111.867 80.2832 111.867C79.3001 111.867 78.5579 111.506 78.0566 110.783C77.5553 110.061 77.3047 109.169 77.3047 108.107V107.795ZM87.2266 113H88.9355V105.881C89.1374 105.419 89.4434 105.035 89.8535 104.729C90.2702 104.423 90.7617 104.27 91.3281 104.27C91.5039 104.27 91.6634 104.276 91.8066 104.289C91.9499 104.302 92.0833 104.322 92.207 104.348V102.756C92.1419 102.73 92.0312 102.704 91.875 102.678C91.7188 102.645 91.5723 102.629 91.4355 102.629C90.8496 102.629 90.3451 102.788 89.9219 103.107C89.4987 103.42 89.1569 103.791 88.8965 104.221H88.8477L88.7793 102.912H87.2266V113ZM93.0566 108.107C93.0566 109.637 93.4701 110.884 94.2969 111.848C95.1237 112.805 96.3118 113.283 97.8613 113.283C98.8184 113.283 99.6289 113.078 100.293 112.668C100.957 112.251 101.445 111.805 101.758 111.33L100.654 110.441C100.368 110.832 99.9902 111.167 99.5215 111.447C99.0592 111.727 98.5059 111.867 97.8613 111.867C96.8197 111.867 96.0482 111.506 95.5469 110.783C95.0521 110.061 94.8047 109.169 94.8047 108.107V107.795C94.8047 106.734 95.0391 105.842 95.5078 105.119C95.9831 104.396 96.6992 104.035 97.6562 104.035C98.4635 104.035 99.0755 104.302 99.4922 104.836C99.9089 105.363 100.117 105.998 100.117 106.74V106.955H94.1016V108.322H101.836V107.629C101.836 106.086 101.468 104.868 100.732 103.977C100.003 103.078 98.9551 102.629 97.5879 102.629C96.2272 102.629 95.1302 103.111 94.2969 104.074C93.4701 105.031 93.0566 106.271 93.0566 107.795V108.107Z" fill="#2F2F2F"/>
<defs>
<filter id="filter0_d_2001_93" x="13" y="3" width="90" height="90" filterUnits="userSpaceOnUse" color-interpolation-filters="sRGB">
<feFlood flood-opacity="0" result="BackgroundImageFix"/>
<feColorMatrix in="SourceAlpha" type="matrix" values="0 0 0 0 0 0 0 0 0 0 0 0 0 0 0 0 0 0 127 0" result="hardAlpha"/>
<feOffset dx="3" dy="3"/>
<feGaussianBlur stdDeviation="2"/>
<feComposite in2="hardAlpha" operator="out"/>
<feColorMatrix type="matrix" values="0 0 0 0 0.366667 0 0 0 0 0.366667 0 0 0 0 0.366667 0 0 0 0.2 0"/>
<feBlend mode="normal" in2="BackgroundImageFix" result="effect1_dropShadow_2001_93"/>
<feBlend mode="normal" in="SourceGraphic" in2="effect1_dropShadow_2001_93" result="shape"/>
</filter>
<filter id="filter1_d_2001_93" x="6" y="0" width="94" height="94" filterUnits="userSpaceOnUse" color-interpolation-filters="sRGB">
<feFlood flood-opacity="0" result="BackgroundImageFix"/>
<feColorMatrix in="SourceAlpha" type="matrix" values="0 0 0 0 0 0 0 0 0 0 0 0 0 0 0 0 0 0 127 0" result="hardAlpha"/>
<feOffset dy="3"/>
<feGaussianBlur stdDeviation="3"/>
<feComposite in2="hardAlpha" operator="out"/>
<feColorMatrix type="matrix" values="0 0 0 0 1 0 0 0 0 1 0 0 0 0 1 0 0 0 0.2 0"/>
<feBlend mode="normal" in2="BackgroundImageFix" result="effect1_dropShadow_2001_93"/>
<feBlend mode="normal" in="SourceGraphic" in2="effect1_dropShadow_2001_93" result="shape"/>
</filter>
</defs>
</svg>
