<svg width="30" height="30" viewBox="0 0 30 30" fill="none" xmlns="http://www.w3.org/2000/svg">
<path d="M15 0C23.284 0 30 6.71602 30 15C30 23.284 23.284 30 15 30C6.71602 30 0 23.284 0 15C0 6.71602 6.71602 0 15 0ZM23.5641 9.50039C23.3104 9.32871 22.493 9.88359 22.1684 9.97734C22.3764 9.73477 23.3924 8.52305 23.0273 8.13809C22.4273 8.47969 21.7189 8.81074 20.7521 8.83945C20.0654 8.18613 19.1748 7.82813 18.2279 7.82813C15.965 7.82813 14.2793 9.85606 14.5693 12.0668C11.0004 12.0064 8.37129 8.48086 7.94355 8.52129C7.82871 8.53125 7.72617 8.59688 7.66816 8.69648C6.68906 10.3957 7.2873 11.8957 7.88789 12.7939C7.61836 12.6334 7.18477 12.4975 7.17656 12.975C7.1502 14.6045 7.91191 15.5578 8.65195 16.0986C8.43809 16.1279 8.29863 16.3424 8.36191 16.551C8.8752 18.2303 10.1197 18.8256 10.9412 19.0359C9.27891 20.2898 6.87012 19.8809 6.84316 19.8756C6.48047 19.8117 6.2748 20.2811 6.5666 20.5037C8.54883 22.0166 11.6232 22.49 14.0449 21.9668C21.7658 20.1375 22.0107 13.0828 21.9949 11.8811C22.2199 11.6713 23.693 10.4221 23.5641 9.50039ZM21.2854 11.7545C21.2865 11.7738 21.4049 13.6857 20.5529 15.8162C19.4145 18.6627 17.1703 20.5014 13.8896 21.2789C13.8545 21.2859 10.8193 21.9146 8.15508 20.6473C9.29414 20.5998 10.8715 20.2787 11.9812 19.033C12.0738 18.9293 12.0961 18.7687 12.0393 18.6416C11.8154 18.1459 10.1584 18.7008 9.24434 16.858C9.56895 16.8721 10.4883 16.8662 10.4309 16.3576C10.3635 15.7629 8.26348 16.0277 7.91894 13.5984C8.22187 13.725 9.06621 13.9699 9.20156 13.5064C9.36094 12.9598 7.1209 11.8582 8.0625 9.49512C9.01348 10.4854 11.7258 12.9521 15.0141 12.7635C15.2344 12.7506 15.3896 12.5396 15.3357 12.3252C14.8641 10.4449 16.2404 8.53359 18.2279 8.53359C19.033 8.53359 19.7883 8.85527 20.3543 9.43887C20.6268 9.72012 21.8256 9.30879 22.1268 9.19629C21.9457 9.4084 21.6381 9.74824 21.2842 10.026C21.1617 10.1221 21.1166 10.2873 21.1734 10.432C21.324 10.8176 22.1701 10.5703 22.4719 10.5094C22.2223 10.7748 21.3809 11.4299 21.2854 11.7545ZM15 0.691992C7.09805 0.691992 0.691992 7.09805 0.691992 15C0.691992 22.902 7.09805 29.308 15 29.308C22.902 29.308 29.308 22.902 29.308 15C29.308 7.09805 22.902 0.691992 15 0.691992Z" fill="#E3E3E3"/>
</svg>
