<svg width="36" height="36" viewBox="0 0 36 36" fill="none" xmlns="http://www.w3.org/2000/svg">
<path d="M17.9999 34.875C27.3197 34.875 34.8749 27.3198 34.8749 18C34.8749 8.68019 27.3197 1.125 17.9999 1.125C8.68007 1.125 1.12488 8.68019 1.12488 18C1.12488 27.3198 8.68007 34.875 17.9999 34.875Z" fill="#070707"/>
<path d="M17.9999 33.1172C26.3489 33.1172 33.1171 26.349 33.1171 18C33.1171 9.65101 26.3489 2.88281 17.9999 2.88281C9.65089 2.88281 2.88269 9.65101 2.88269 18C2.88269 26.349 9.65089 33.1172 17.9999 33.1172Z" fill="white"/>
<path d="M9.60626 28.3885H26.3933C27.4393 27.5423 28.355 26.5416 29.1054 25.4207H6.89417C7.64454 26.5416 8.56029 27.5422 9.60626 28.3885Z" fill="#D6062F"/>
<path d="M20.2256 16.5172H31.2725C31.1587 15.4881 30.928 14.4944 30.5939 13.5494H20.2256V16.5172Z" fill="#D6062F"/>
<path d="M20.2256 10.5815H29.1054C28.355 9.46062 27.4392 8.45993 26.3933 7.61372H20.2256V10.5815Z" fill="#D6062F"/>
<path d="M5.40557 22.4528H30.594C30.9281 21.5078 31.1588 20.5141 31.2725 19.485H4.72705C4.84089 20.5141 5.07151 21.5078 5.40557 22.4528Z" fill="#D6062F"/>
<path d="M9.60632 28.3885C14.4309 32.2919 21.4364 32.399 26.3934 28.3885H9.60632Z" fill="white"/>
<path d="M6.89417 25.4207H29.1054C29.7183 24.5052 30.2206 23.5095 30.594 22.4529H5.40552C5.77902 23.5095 6.28126 24.5051 6.89417 25.4207Z" fill="white"/>
<path d="M4.64453 18.0011V19.4851H4.72701C4.67315 18.9977 4.64453 18.5028 4.64453 18.0011Z" fill="white"/>
<path d="M4.64453 16.5172V18.0011C4.64453 17.4994 4.67315 17.0045 4.72701 16.5172H4.64453Z" fill="white"/>
<path d="M31.2725 19.485C31.3792 18.5202 31.3857 17.5411 31.2725 16.5172C29.8977 16.5172 5.71721 16.5172 4.727 16.5172C4.62034 17.4819 4.6138 18.4611 4.727 19.485H31.2725Z" fill="white"/>
<path d="M20.2256 13.5494H30.5939C30.2204 12.4928 29.7182 11.4971 29.1054 10.5815H20.2256V13.5494Z" fill="white"/>
<path d="M26.3933 7.61372C24.6467 6.20065 22.537 5.21944 20.2256 4.8316V7.61372H26.3933Z" fill="white"/>
<path d="M4.72705 16.5172H20.2257C20.2257 15.2485 20.2257 5.94211 20.2257 4.83152C12.6222 3.55578 5.56496 8.93897 4.72705 16.5172Z" fill="#070707"/>
<path d="M13.5452 7.23931L14.162 6.7912L14.7787 7.23931L14.5432 6.51424L15.16 6.06614H14.3976L14.162 5.34108L13.9264 6.06614H13.1641L13.7808 6.51424L13.5452 7.23931Z" fill="white"/>
<path d="M16.9991 7.23931L17.6159 6.7912L18.2326 7.23931L17.997 6.51424L18.6137 6.06614H17.8514L17.6159 5.34108L17.3802 6.06614H16.6179L17.2347 6.51424L16.9991 7.23931Z" fill="white"/>
<path d="M10.0915 10.1002L10.7083 9.65208L11.325 10.1002L11.0894 9.37512L11.7062 8.92702H10.9438L10.7083 8.20203L10.4727 8.92702H9.71033L10.3271 9.37512L10.0915 10.1002Z" fill="white"/>
<path d="M13.5452 10.1002L14.162 9.65208L14.7787 10.1002L14.5432 9.37512L15.16 8.92702H14.3976L14.162 8.20203L13.9264 8.92702H13.1641L13.7808 9.37512L13.5452 10.1002Z" fill="white"/>
<path d="M16.9991 10.1002L17.6159 9.65208L18.2326 10.1002L17.997 9.37512L18.6137 8.92702H17.8514L17.6159 8.20203L17.3802 8.92702H16.6179L17.2347 9.37512L16.9991 10.1002Z" fill="white"/>
<path d="M7.25442 11.0629L7.01887 11.7879H6.25647L6.87325 12.236L6.63763 12.9611L7.25442 12.513L7.8712 12.9611L7.63558 12.236L8.25236 11.7879H7.48996L7.25442 11.0629Z" fill="white"/>
<path d="M10.0915 12.9611L10.7083 12.513L11.325 12.9611L11.0894 12.236L11.7062 11.7879H10.9438L10.7083 11.0629L10.4727 11.7879H9.71033L10.3271 12.236L10.0915 12.9611Z" fill="white"/>
<path d="M13.5452 12.9611L14.162 12.513L14.7787 12.9611L14.5432 12.236L15.16 11.7879H14.3976L14.162 11.0629L13.9264 11.7879H13.1641L13.7808 12.236L13.5452 12.9611Z" fill="white"/>
<path d="M16.9991 12.9611L17.6159 12.513L18.2326 12.9611L17.997 12.236L18.6137 11.7879H17.8514L17.6159 11.0629L17.3802 11.7879H16.6179L17.2347 12.236L16.9991 12.9611Z" fill="white"/>
<path d="M7.48996 14.6488L7.25442 13.9238L7.01887 14.6488H6.25647L6.87325 15.0969L6.63763 15.8219L7.25442 15.3738L7.8712 15.8219L7.63558 15.0969L8.25236 14.6488H7.48996Z" fill="white"/>
<path d="M10.0915 15.8219L10.7083 15.3738L11.325 15.8219L11.0894 15.0969L11.7062 14.6488H10.9438L10.7083 13.9238L10.4727 14.6488H9.71033L10.3271 15.0969L10.0915 15.8219Z" fill="white"/>
<path d="M13.5452 15.8219L14.162 15.3738L14.7787 15.8219L14.5432 15.0969L15.16 14.6488H14.3976L14.162 13.9238L13.9264 14.6488H13.1641L13.7808 15.0969L13.5452 15.8219Z" fill="white"/>
<path d="M16.9991 15.8219L17.6159 15.3738L18.2326 15.8219L17.997 15.0969L18.6137 14.6488H17.8514L17.6159 13.9238L17.3802 14.6488H16.6179L17.2347 15.0969L16.9991 15.8219Z" fill="white"/>
</svg>

