<svg width="30" height="30" viewBox="0 0 30 30" fill="none" xmlns="http://www.w3.org/2000/svg">
<path d="M14.9803 0C23.2534 0 29.9607 6.70722 29.9607 14.9803C29.9607 23.2534 23.2534 29.9607 14.9803 29.9607C6.70722 29.9607 0 23.2534 0 14.9803C0 6.70722 6.70722 0 14.9803 0ZM17.21 15.4744L13.9752 17.2481C13.5994 17.4506 13.1996 17.1714 13.1996 16.7587V13.1206C13.1996 12.7097 13.6047 12.4205 13.9864 12.6377L17.2416 14.5032C17.6227 14.7251 17.5858 15.2683 17.21 15.4744ZM13.8909 16.507L16.6803 14.9774L13.8909 13.3782V16.507ZM21.8099 13.082C21.8099 11.5471 20.5666 10.3032 19.0317 10.3032H10.9289C9.39468 10.3032 8.15076 11.5471 8.15076 13.082V16.8787C8.15076 18.4135 9.39468 19.6575 10.9289 19.6575H19.0317C20.5666 19.6575 21.8099 18.4135 21.8099 16.8787V13.082ZM22.5012 13.082V16.8787C22.5012 18.7952 20.9482 20.3488 19.0317 20.3488H10.9289C9.01301 20.3488 7.45943 18.7952 7.45943 16.8787V13.082C7.45943 11.1654 9.01301 9.61185 10.9289 9.61185H19.0317C20.9482 9.61185 22.5012 11.1654 22.5012 13.082ZM14.9803 0.691913C7.08889 0.691913 0.691328 7.08889 0.691328 14.9803C0.691328 22.8718 7.08889 29.2687 14.9803 29.2687C22.8718 29.2687 29.2693 22.8718 29.2693 14.9803C29.2693 7.08889 22.8718 0.691913 14.9803 0.691913Z" fill="#E3E3E3"/>
</svg>
